<svg width="24" height="24" viewBox="0 0 24 24" fill="none" xmlns="http://www.w3.org/2000/svg">
<path fill-rule="evenodd" clip-rule="evenodd" d="M9.45332 3.35135C9.89809 3.25657 10.2965 3.61156 10.2965 4.06632C10.2965 4.4439 10.0176 4.76013 9.64952 4.84449C6.12733 5.65177 3.5 8.80517 3.5 12.5722C3.5 16.9507 7.04948 20.5002 11.428 20.5002C15.19 20.5002 18.3399 17.88 19.1524 14.3649C19.2374 13.9975 19.5533 13.7193 19.9304 13.7193C20.3858 13.7193 20.7409 14.1187 20.6452 14.5639C19.7312 18.8143 15.9516 22.0002 11.428 22.0002C6.22105 22.0002 2 17.7792 2 12.5722C2 8.04256 5.19439 4.25899 9.45332 3.35135Z" fill="#C4C4C4"/>
<mask id="mask0_4858_10694" style="mask-type:alpha" maskUnits="userSpaceOnUse" x="12" y="2" width="10" height="10">
<path d="M20.0146 11.9999C21.1192 11.9999 22.0348 11.0957 21.8153 10.0132C21.6879 9.38469 21.5 8.76839 21.2534 8.17307C20.7509 6.95981 20.0143 5.85742 19.0857 4.92883C18.1571 4.00025 17.0547 3.26365 15.8415 2.7611C15.2462 2.51451 14.6299 2.32664 14.0014 2.19924C12.9188 1.97979 12.0146 2.89533 12.0146 3.9999V9.9999C12.0146 11.1045 12.9101 11.9999 14.0146 11.9999H20.0146Z" fill="white"/>
</mask>
<g mask="url(#mask0_4858_10694)">
<path d="M20.0146 11.9999C21.1192 11.9999 22.0348 11.0957 21.8153 10.0132C21.6879 9.38469 21.5 8.76839 21.2534 8.17307C20.7509 6.95981 20.0143 5.85742 19.0857 4.92883C18.1571 4.00025 17.0547 3.26365 15.8415 2.7611C15.2462 2.51451 14.6299 2.32664 14.0014 2.19924C12.9188 1.97979 12.0146 2.89533 12.0146 3.9999V9.9999C12.0146 11.1045 12.9101 11.9999 14.0146 11.9999H20.0146Z" stroke="#C4C4C4" stroke-width="3"/>
</g>
</svg>
