<svg width="40" height="40" viewBox="0 0 40 40" fill="none" xmlns="http://www.w3.org/2000/svg">
<rect x="0.5" y="0.5" width="39" height="39" rx="9.5" fill="white" stroke="#F2F2F2"/>
<path d="M10.9008 15.7599L11.7808 14.2357C12.3008 13.335 13.4669 13.0152 14.3762 13.5402C15.9437 14.4452 17.2246 13.7067 17.2215 11.892C17.2212 10.8526 18.0747 9.99437 19.1227 9.99904L21.116 10.0067C22.0351 9.99464 22.7785 10.7471 22.7905 11.6663L22.7908 11.8858C22.7852 13.6955 24.0669 14.4355 25.64 13.5308L25.8302 13.4213C26.6323 12.9721 27.6556 13.2396 28.1048 14.0417L29.108 15.764C29.6361 16.6694 29.3196 17.8376 28.4192 18.357C26.8461 19.2617 26.847 20.7402 28.4145 21.6452C29.3152 22.1652 29.635 23.3313 29.11 24.2406L28.23 25.7648C27.71 26.6655 26.5438 26.9853 25.6345 26.4603C24.067 25.5553 22.7861 26.2938 22.7892 28.1084C22.7846 29.1565 21.9361 30.0061 20.888 30.0015L18.8948 29.9938C17.9756 30.0059 17.2323 29.2534 17.2202 28.3342L17.22 28.1147C17.2255 26.305 15.9438 25.565 14.3707 26.4697L14.1805 26.5792C13.3785 27.0284 12.3551 26.7609 11.9059 25.9588L10.9027 24.2365C10.3746 23.3311 10.6912 22.1629 11.5915 21.6434C13.1646 20.7388 13.1637 19.2603 11.5962 18.3553C10.6869 17.8303 10.3808 16.6605 10.9008 15.7599Z" stroke="#959595" stroke-width="1.5" stroke-miterlimit="10" stroke-linecap="round" stroke-linejoin="round"/>
<path d="M23.25 20C23.25 18.2051 21.7949 16.75 20 16.75C18.2051 16.75 16.75 18.2051 16.75 20C16.75 21.7949 18.2051 23.25 20 23.25C21.7949 23.25 23.25 21.7949 23.25 20Z" stroke="#959595" stroke-width="1.5"/>
</svg>
