<svg width="50" height="29" viewBox="0 0 50 29" fill="none" xmlns="http://www.w3.org/2000/svg">
<path d="M17.8088 6.60987H34.7828C36.2778 6.60856 37.7583 6.89782 39.1396 7.46108C40.5209 8.02433 41.7758 8.85052 42.8325 9.89229C43.8891 10.9341 44.7267 12.171 45.2972 13.5321C45.8678 14.8933 46.1601 16.352 46.1575 17.8247C46.1522 20.792 44.9511 23.6359 42.8182 25.7314C40.6854 27.8269 37.7952 29.0025 34.7828 28.9998H17.8088C14.7991 28.9985 11.9128 27.8212 9.78317 25.7262C7.65356 23.6311 6.45456 20.7895 6.44924 17.8247C6.44659 16.3533 6.73843 14.8958 7.30806 13.5356C7.87769 12.1754 8.71393 10.9391 9.76896 9.89755C10.824 8.85597 12.0771 8.02948 13.4567 7.46535C14.8362 6.90122 16.3151 6.61052 17.8088 6.60987Z" fill="#FFBE88"/>
<path d="M45.4446 17.8247C45.9218 17.8247 46.3944 17.9173 46.8353 18.0972C47.2762 18.2771 47.6768 18.5408 48.0143 18.8732C48.3517 19.2056 48.6194 19.6003 48.802 20.0346C48.9847 20.4689 49.0787 20.9344 49.0787 21.4045C49.0787 21.8746 48.9847 22.3401 48.802 22.7745C48.6194 23.2088 48.3517 23.6034 48.0143 23.9358C47.6768 24.2683 47.2762 24.5319 46.8353 24.7118C46.3944 24.8917 45.9218 24.9843 45.4446 24.9843C44.4808 24.9843 43.5565 24.6072 42.8749 23.9358C42.1934 23.2645 41.8105 22.354 41.8105 21.4045C41.8105 20.4551 42.1934 19.5446 42.8749 18.8732C43.5565 18.2019 44.4808 17.8247 45.4446 17.8247Z" fill="#FFBE88"/>
<path d="M45.4488 22.618C45.1169 22.618 44.7986 22.4881 44.5638 22.2569C44.3291 22.0257 44.1973 21.7121 44.1973 21.3852C44.1986 21.059 44.331 20.7467 44.5656 20.5166C44.8002 20.2864 45.1178 20.1572 45.4488 20.1572C45.7794 20.1572 46.0965 20.2866 46.3303 20.5169C46.564 20.7472 46.6954 21.0595 46.6954 21.3852C46.696 21.5468 46.6643 21.707 46.6019 21.8566C46.5396 22.0061 46.4479 22.1421 46.332 22.2566C46.2162 22.3712 46.0786 22.4621 45.927 22.5241C45.7755 22.5861 45.613 22.618 45.4488 22.618Z" fill="#DC8071"/>
<path d="M13.8044 20.4644C14.0924 20.4644 14.3685 20.577 14.5721 20.7776C14.7758 20.9782 14.8901 21.2502 14.8901 21.5338V22.9004C14.8901 23.1841 14.7758 23.4561 14.5721 23.6567C14.3685 23.8572 14.0924 23.9699 13.8044 23.9699C13.5165 23.9699 13.2404 23.8572 13.0367 23.6567C12.8331 23.4561 12.7188 23.1841 12.7188 22.9004V21.5338C12.7188 21.2502 12.8331 20.9782 13.0367 20.7776C13.2404 20.577 13.5165 20.4644 13.8044 20.4644Z" fill="#003237"/>
<path d="M30.6228 20.4644C30.9107 20.4644 31.1869 20.577 31.3905 20.7776C31.5941 20.9782 31.7085 21.2502 31.7085 21.5338V22.9004C31.7085 23.1841 31.5941 23.4561 31.3905 23.6567C31.1869 23.8572 30.9107 23.9699 30.6228 23.9699C30.3349 23.9699 30.0587 23.8572 29.8551 23.6567C29.6515 23.4561 29.5371 23.1841 29.5371 22.9004V21.5338C29.5371 21.2502 29.6515 20.9782 29.8551 20.7776C30.0587 20.577 30.3349 20.4644 30.6228 20.4644Z" fill="#003237"/>
<path d="M23.0362 1.39111H29.5705C31.7487 1.39111 33.9056 1.81374 35.9181 2.63488C37.9305 3.45601 39.759 4.65956 41.2993 6.17682C42.8395 7.69407 44.0613 9.49532 44.8949 11.4777C45.7284 13.4601 46.1575 15.5848 46.1575 17.7305H6.44922C6.44922 13.397 8.19677 9.24105 11.3074 6.17682C14.4181 3.11258 18.6371 1.39111 23.0362 1.39111Z" fill="#6D2C92"/>
<path fill-rule="evenodd" clip-rule="evenodd" d="M26.8128 1.39111C13.2416 1.39111 13.8398 17.7305 13.8398 17.7305H13.2266C13.2266 8.69434 17.0315 1.39111 26.1996 1.39111H26.8128Z" fill="#491868"/>
<path fill-rule="evenodd" clip-rule="evenodd" d="M28.3496 1.39111C41.9208 1.39111 41.3226 17.7305 41.3226 17.7305H41.9308C41.9308 8.69434 38.1309 1.39111 28.9578 1.39111H28.3496Z" fill="#491868"/>
<path fill-rule="evenodd" clip-rule="evenodd" d="M6.44986 17.7505C6.44986 17.7505 -0.587047 19.0576 1.21239 20.1519C3.01183 21.2461 8.8223 18.0426 15.246 19.7657C21.6697 21.4887 37.8646 17.7505 37.8646 17.7505H6.44986Z" fill="#491868"/>
<path d="M24.324 2.21108e-10H28.2696C28.4567 -4.635e-06 28.6362 0.072869 28.769 0.202726C28.9018 0.332584 28.977 0.508889 28.9784 0.693187C28.9784 0.878345 28.9037 1.05592 28.7708 1.18685C28.6379 1.31777 28.4576 1.39133 28.2696 1.39133H24.324C24.136 1.39133 23.9557 1.31777 23.8228 1.18685C23.6899 1.05592 23.6152 0.878345 23.6152 0.693187C23.6166 0.508889 23.6918 0.332584 23.8246 0.202726C23.9573 0.072869 24.1369 -4.635e-06 24.324 2.21108e-10V2.21108e-10Z" fill="#491868"/>
</svg>
