<svg width="24" height="24" viewBox="0 0 24 24" fill="none" xmlns="http://www.w3.org/2000/svg">
<path d="M8 7.25C7.58579 7.25 7.25 7.58579 7.25 8C7.25 8.41421 7.58579 8.75 8 8.75V7.25ZM16 8.75C16.4142 8.75 16.75 8.41421 16.75 8C16.75 7.58579 16.4142 7.25 16 7.25V8.75ZM8 11.25C7.58579 11.25 7.25 11.5858 7.25 12C7.25 12.4142 7.58579 12.75 8 12.75V11.25ZM16 12.75C16.4142 12.75 16.75 12.4142 16.75 12C16.75 11.5858 16.4142 11.25 16 11.25V12.75ZM8 15.25C7.58579 15.25 7.25 15.5858 7.25 16C7.25 16.4142 7.58579 16.75 8 16.75V15.25ZM12 16.75C12.4142 16.75 12.75 16.4142 12.75 16C12.75 15.5858 12.4142 15.25 12 15.25V16.75ZM4.25 12C4.25 10.2671 4.34381 8.9258 4.57589 7.88145C4.80608 6.84561 5.16219 6.14847 5.65533 5.65533C6.14847 5.16219 6.84561 4.80608 7.88145 4.57589C8.9258 4.34381 10.2671 4.25 12 4.25V2.75C10.2329 2.75 8.7617 2.84369 7.55605 3.11161C6.34189 3.38142 5.35153 3.83781 4.59467 4.59467C3.83781 5.35153 3.38142 6.34189 3.11161 7.55605C2.84369 8.7617 2.75 10.2329 2.75 12H4.25ZM12 19.75C10.2671 19.75 8.9258 19.6562 7.88145 19.4241C6.84561 19.1939 6.14847 18.8378 5.65533 18.3447C5.16219 17.8515 4.80608 17.1544 4.57589 16.1186C4.34381 15.0742 4.25 13.7329 4.25 12H2.75C2.75 13.7671 2.84369 15.2383 3.11161 16.4439C3.38142 17.6581 3.83781 18.6485 4.59467 19.4053C5.35153 20.1622 6.34189 20.6186 7.55605 20.8884C8.7617 21.1563 10.2329 21.25 12 21.25V19.75ZM19.75 12C19.75 13.7329 19.6562 15.0742 19.4241 16.1186C19.1939 17.1544 18.8378 17.8515 18.3447 18.3447C17.8515 18.8378 17.1544 19.1939 16.1186 19.4241C15.0742 19.6562 13.7329 19.75 12 19.75V21.25C13.7671 21.25 15.2383 21.1563 16.4439 20.8884C17.6581 20.6186 18.6485 20.1622 19.4053 19.4053C20.1622 18.6485 20.6186 17.6581 20.8884 16.4439C21.1563 15.2383 21.25 13.7671 21.25 12H19.75ZM12 4.25C13.7329 4.25 15.0742 4.34381 16.1186 4.57589C17.1544 4.80608 17.8515 5.16219 18.3447 5.65533C18.8378 6.14847 19.1939 6.84561 19.4241 7.88145C19.6562 8.9258 19.75 10.2671 19.75 12H21.25C21.25 10.2329 21.1563 8.7617 20.8884 7.55605C20.6186 6.34189 20.1622 5.35153 19.4053 4.59467C18.6485 3.83781 17.6581 3.38142 16.4439 3.11161C15.2383 2.84369 13.7671 2.75 12 2.75V4.25ZM8 8.75H16V7.25H8V8.75ZM8 12.75H16V11.25H8V12.75ZM8 16.75H12V15.25H8V16.75Z" fill="#959595"/>
</svg>
