<svg xmlns="http://www.w3.org/2000/svg" width="620" height="620" fill="none" viewBox="0 0 620 620">
  <path fill="#82CC52" d="M620 0H0v620h620V0Z"/>
  <path fill="#74B749" d="M370.369 121.979h-117.61V0h117.61v121.979Zm0 498.021h-117.61v-79.111h117.61V620Zm191.079-141.558a66.384 66.384 0 0 1-41.134 61.243 66.384 66.384 0 0 1-25.421 4.99h-48.74v-125.72h115.295v59.487Z"/>
  <path fill="#74B749" d="M105.068 236.967v-69.851c0-27.199 21.265-49.246 47.529-49.246h217.772v58.261c0 33.561-26.233 60.775-58.583 60.775l-206.718.061Zm147.691 307.708v-68.119c0-27.597 21.464-49.92 47.85-49.92h145.544V544.69l-193.394-.015Z"/>
  <path fill="#74B749" d="M105.068 233.303h119.986v189.423h-60.759c-32.703 0-59.227-25.098-59.227-56.068V233.303Z"/>
  <path fill="#74B749" d="M207.469 422.727V304.182h284.066c38.82 0 70.296 31.798 70.296 71.016v47.529H207.469Zm17.586-300.641c4.1 0 8.161-.808 11.949-2.377a31.23 31.23 0 0 0 16.894-16.903 31.214 31.214 0 0 0 2.372-11.95v31.23h-31.215Zm26.477 111.217a30.264 30.264 0 0 0-30.264 30.265v-30.265h30.264Z"/>
  <path fill="#74B749" d="M221.268 276.078a31.49 31.49 0 0 0 31.491 31.491h-31.491v-31.491Zm224.885 153.793a10.992 10.992 0 0 0-10.977-10.977h10.977v10.977Z"/>
  <path fill="#74B749" d="M436.188 429.565a9.926 9.926 0 0 0 7.044-2.899 9.935 9.935 0 0 0 2.921-7.036v9.935h-9.965Zm-36.75 111.324a32.198 32.198 0 0 0-32.197 32.196v-32.196h32.197Z"/>
  <path fill="#EFC881" d="M367.226 121.979H255.902V0h111.324v121.979Zm0 498.021H255.902v-79.111h111.324V620Zm190.22-143.367a64.253 64.253 0 0 1-64.255 64.255h-47.038V418.894h111.324l-.031 57.739Zm-447.502-243.33v-65.267a45.993 45.993 0 0 1 45.996-45.995h211.286v54.504a56.82 56.82 0 0 1-56.819 56.82l-200.463-.062Z"/>
  <path fill="#EFC881" d="M255.902 540.888v-64.255a47.083 47.083 0 0 1 47.084-47.069h143.168v111.324H255.902ZM109.944 233.303h111.324v185.59h-56.375a54.95 54.95 0 0 1-54.949-54.933V233.303Zm111.324 185.591V307.57h269.485a66.706 66.706 0 0 1 66.693 66.693v44.631H221.268Zm17.171-296.807a17.833 17.833 0 0 0 17.831-17.831v17.831h-17.831Zm.736 111.216a17.842 17.842 0 0 0-17.846 17.846v-17.846h17.846Z"/>
  <path fill="#EFC881" d="M221.268 289.77a17.818 17.818 0 0 0 5.26 12.615 17.827 17.827 0 0 0 12.647 5.185h-17.907v-17.8Zm224.886 134.214c0-1.35-.537-2.645-1.491-3.6a5.094 5.094 0 0 0-3.6-1.49h5.091v5.09Zm-5.122 5.581a5.091 5.091 0 0 0 5.09-5.09v5.09h-5.09Zm-55.976 111.324a17.83 17.83 0 0 0-17.83 17.83v-17.83h17.83Z"/>
</svg>
