<svg xmlns="http://www.w3.org/2000/svg" width="125" height="59" fill="none" viewBox="0 0 125 59">
  <path fill="#597718" d="M12.17 32.81a11.54 11.54 0 0 1 6.27 1.87H19a6.72 6.72 0 0 1-.77-3.14 6.19 6.19 0 0 1 6-6.38 5.698 5.698 0 0 1 1.94.35 10.91 10.91 0 0 1-1.59-5.7c0-5.78 4.39-10.47 9.8-10.47a9.37 9.37 0 0 1 6.35 2.5C41.63 5.4 46.82.45 53.1.45c6.91 0 12.52 6 12.52 13.38a13.25 13.25 0 0 1-.13 1.78 9.2 9.2 0 0 1 4.46-1.16c5.19 0 9.43 4.32 9.77 9.77a5.69 5.69 0 0 1 3.24-1 5.93 5.93 0 0 1 5.32 3.51 5.78 5.78 0 0 1 4.38-2.05 6.14 6.14 0 0 1 6 6 9.583 9.583 0 0 1 7.93-4.34c5.42 0 9.8 4.69 9.8 10.47.002.398-.021.795-.07 1.19a10.333 10.333 0 0 1 7.9 10.28c0 5.78-4.39 10.47-9.8 10.47a8.515 8.515 0 0 1-1.14-.08H14.22c-.675.133-1.362.2-2.05.2C5.45 58.83 0 53 0 45.82c0-7.18 5.45-13.01 12.17-13.01Z"/>
</svg>
