<svg width="24" height="24" viewBox="0 0 24 24" fill="none" xmlns="http://www.w3.org/2000/svg">
<path d="M9.36105 11.5811H19.6799V7.19434H5.00024V12.5073C5.01521 15.3981 6.11212 18.1791 8.07596 20.3052C10.0398 22.4312 12.7289 23.749 15.6162 24.0002H19.6799V19.5542H15.6162C13.892 19.319 12.3106 18.4719 11.1617 17.1681C10.0129 15.8643 9.37359 14.1912 9.36105 12.4554V11.5811Z" fill="#959595"/>
<path d="M7.16212 4.44501C7.60709 4.45827 8.04585 4.33831 8.42185 4.10059C8.79785 3.86287 9.09386 3.51829 9.27174 3.11124C9.44961 2.7042 9.5012 2.25335 9.41986 1.81679C9.33851 1.38024 9.12796 0.977982 8.81533 0.661868C8.50271 0.345754 8.10234 0.130268 7.66581 0.0431782C7.22929 -0.0439115 6.77662 0.0013866 6.36614 0.173235C5.95567 0.345084 5.60619 0.635609 5.36275 1.00737C5.11931 1.37913 4.99307 1.81508 5.00029 2.25906C5.00959 2.83082 5.23944 3.37703 5.64205 3.78413C6.04466 4.19123 6.58907 4.42793 7.16212 4.44501V4.44501Z" fill="#959595"/>
</svg>
